<?xml version="1.0" standalone="no"?>
<!DOCTYPE svg PUBLIC "-//W3C//DTD SVG 20010904//EN"
 "http://www.w3.org/TR/2001/REC-SVG-20010904/DTD/svg10.dtd">
<svg version="1.0" xmlns="http://www.w3.org/2000/svg"
 width="1023.000000pt" height="873.000000pt" viewBox="0 0 1023.000000 873.000000"
 preserveAspectRatio="xMidYMid meet">

<g transform="translate(0.000000,873.000000) scale(0.100000,-0.100000)"
fill="#000000" stroke="none">
<path d="M8380 8718 c-23 -9 -311 -292 -358 -352 -44 -57 -20 -118 66 -174
l57 -36 171 -6 171 -5 46 -36 c63 -49 117 -116 156 -196 30 -58 33 -73 28
-122 -7 -62 -56 -169 -99 -212 -38 -38 -122 -76 -183 -84 -27 -3 -77 -10 -110
-15 -33 -6 -77 -10 -99 -10 -23 0 -62 -12 -98 -30 -65 -33 -281 -175 -456
-300 -62 -44 -115 -80 -118 -80 -2 0 -57 39 -122 87 -109 80 -162 117 -322
216 -63 40 -428 227 -442 227 -5 0 -52 19 -106 42 -53 23 -110 45 -127 49 -16
4 -84 25 -150 47 -290 96 -587 149 -966 173 -90 5 -167 13 -170 17 -6 7 -29
73 -47 137 -8 27 -10 23 -36 -57 -31 -97 -31 -98 -136 -98 -36 0 -123 -7 -195
-15 -71 -9 -168 -20 -215 -25 -77 -9 -171 -28 -365 -76 -236 -57 -668 -222
-815 -310 -14 -8 -61 -33 -105 -55 -44 -23 -101 -57 -126 -75 -26 -19 -49 -34
-53 -34 -10 0 -195 -127 -285 -196 -47 -35 -88 -64 -92 -64 -4 0 -54 34 -111
75 -155 113 -413 284 -471 311 -29 13 -65 24 -82 24 -27 0 -164 19 -255 35
-50 9 -114 43 -149 79 -46 48 -91 145 -98 208 -5 51 -2 63 33 133 44 87 127
181 189 213 35 17 60 20 195 21 l155 2 55 33 c36 22 61 46 74 70 34 68 23 85
-163 271 -93 93 -181 175 -196 183 -25 13 -30 12 -54 -5 -43 -32 -288 -325
-555 -663 -350 -443 -775 -1030 -887 -1225 -80 -139 -90 -204 -144 -950 -9
-128 -25 -257 -40 -330 -14 -66 -29 -151 -34 -190 -5 -38 -27 -178 -49 -310
-49 -292 -84 -593 -84 -712 -1 -64 5 -107 22 -158 26 -83 62 -156 85 -175 15
-13 16 -10 8 36 -4 27 -8 77 -8 110 0 58 2 64 43 107 43 48 49 61 32 72 -16
10 -12 20 30 67 34 39 38 47 25 58 -22 18 -19 29 25 76 44 48 47 59 23 86 -15
17 -13 22 30 87 39 59 44 71 32 81 -23 19 -19 34 31 110 l46 72 -21 22 -21 22
46 72 46 72 -20 27 -20 27 42 59 c22 33 45 66 51 73 6 9 3 20 -14 37 l-22 25
47 82 48 82 -24 20 c-20 16 -22 22 -12 36 7 9 16 27 22 39 5 12 21 41 35 64
l27 41 -31 32 -31 31 30 45 c48 72 55 95 36 122 -37 53 -8 108 58 108 35 0 37
2 34 27 -2 19 -10 29 -23 31 -32 6 -55 33 -55 63 0 40 24 59 75 59 36 0 44 4
49 23 3 12 2 23 -2 25 -36 12 -72 45 -72 65 0 34 19 47 66 47 35 0 43 4 47 22
5 17 -2 30 -28 54 -61 56 -43 94 46 94 72 0 84 19 39 65 -33 34 -38 66 -15 85
14 12 44 10 91 -5 29 -9 38 18 19 55 -45 86 21 146 93 85 24 -20 32 -22 45
-12 15 11 15 16 0 59 -14 44 -14 50 1 73 25 39 74 58 158 63 149 9 257 -37
383 -163 55 -55 115 -101 189 -145 59 -36 138 -85 174 -108 37 -24 84 -52 104
-63 20 -10 39 -23 43 -29 3 -5 -16 -36 -43 -68 -175 -211 -344 -467 -464 -707
-215 -428 -309 -730 -395 -1270 -25 -159 -27 -191 -27 -490 -1 -341 5 -412 60
-710 41 -226 76 -361 146 -560 17 -49 41 -119 54 -155 12 -36 34 -89 48 -117
14 -29 26 -56 26 -59 0 -7 139 -285 149 -299 5 -5 25 -41 46 -80 21 -38 46
-81 57 -95 31 -41 168 -252 168 -258 0 -3 -30 -37 -68 -76 -82 -87 -89 -96
-210 -269 -409 -584 -470 -680 -479 -756 -6 -56 1 -110 20 -135 12 -16 16 -16
67 5 37 15 73 21 111 20 49 -1 58 2 72 23 14 21 20 23 57 16 39 -7 41 -6 62
31 20 37 24 39 70 39 46 0 48 1 48 29 0 27 4 29 57 40 70 14 67 11 510 445
l111 109 89 -80 c49 -44 123 -107 165 -140 42 -33 86 -70 98 -81 44 -41 338
-231 470 -305 270 -149 665 -307 920 -367 296 -69 422 -88 690 -106 203 -13
284 -14 475 -4 286 13 371 25 715 100 224 48 610 189 825 301 339 177 600 356
864 590 l103 92 87 -85 c503 -488 462 -452 534 -468 53 -12 57 -15 57 -41 0
-26 3 -28 47 -31 43 -3 51 -7 71 -39 23 -35 26 -36 60 -28 33 7 39 5 58 -18
17 -22 26 -25 65 -21 31 4 63 -2 108 -19 46 -17 68 -20 75 -13 6 6 11 52 11
108 0 95 -1 98 -40 162 -36 61 -182 275 -363 536 -130 187 -238 327 -291 379
-28 27 -51 54 -51 60 0 6 19 38 43 70 160 221 345 567 456 857 34 87 61 161
61 167 0 5 16 57 35 117 19 59 42 139 50 178 8 39 26 123 39 186 56 264 60
315 60 755 l-1 410 -31 170 c-72 398 -99 494 -247 892 -28 73 -186 395 -224
456 -15 23 -51 83 -81 132 -29 50 -72 115 -95 145 -23 30 -73 98 -112 150 -39
52 -87 115 -107 140 -20 25 -36 47 -36 51 0 3 24 18 53 33 28 16 61 36 72 45
11 10 47 32 79 50 129 71 234 147 302 216 85 86 137 119 236 147 128 36 275
11 305 -53 12 -24 9 -50 -12 -101 -4 -11 0 -20 15 -28 17 -9 26 -7 52 15 40
34 79 31 92 -8 10 -26 8 -33 -18 -97 -12 -31 8 -43 51 -30 79 24 113 -34 53
-90 -43 -41 -32 -60 35 -60 88 0 112 -46 50 -97 -26 -22 -33 -34 -28 -51 4
-18 13 -22 43 -22 39 0 70 -23 70 -53 0 -14 -43 -49 -72 -59 -4 -2 -5 -13 -2
-25 5 -19 13 -23 45 -23 92 0 108 -98 21 -125 -39 -11 -25 -48 20 -56 20 -3
44 -11 52 -19 22 -17 20 -63 -3 -91 -18 -22 -18 -23 20 -90 22 -38 39 -73 39
-79 0 -6 -12 -21 -27 -34 -25 -22 -26 -25 -12 -47 9 -13 31 -51 49 -83 l33
-60 -23 -18 -23 -18 47 -81 47 -81 -20 -22 c-12 -12 -21 -25 -21 -29 0 -3 20
-35 45 -70 50 -71 52 -82 29 -108 -15 -17 -13 -23 29 -91 46 -72 46 -73 27
-93 -11 -12 -20 -24 -20 -28 0 -4 22 -39 49 -78 47 -68 49 -73 34 -95 -14 -22
-13 -27 27 -90 38 -61 40 -67 26 -83 -24 -26 -20 -39 24 -87 44 -48 47 -56 25
-74 -12 -10 -9 -19 26 -60 35 -42 39 -51 29 -70 -10 -19 -6 -27 29 -65 48 -52
58 -93 42 -185 -15 -91 -14 -97 7 -69 65 84 104 212 103 334 0 119 -35 420
-77 675 -19 113 -39 237 -45 275 -6 39 -24 140 -40 225 -32 174 -45 291 -59
561 -9 180 -28 382 -51 539 -8 51 -25 102 -53 160 -92 187 -479 727 -959 1336
-221 281 -489 599 -517 614 -8 4 -26 3 -40 -2z m-3363 -890 c-17 -47 -187
-598 -277 -900 -13 -43 -24 -78 -26 -78 -24 0 -278 -55 -419 -91 -107 -28
-402 -143 -500 -196 -16 -9 -64 -34 -105 -55 -210 -111 -529 -354 -706 -539
-258 -269 -462 -577 -613 -924 -82 -191 -164 -487 -208 -753 -21 -130 -29
-547 -13 -684 26 -224 80 -482 134 -633 20 -55 36 -105 36 -112 0 -7 11 -36
24 -65 13 -29 36 -82 51 -118 152 -364 464 -782 790 -1061 170 -145 412 -304
618 -406 110 -55 376 -163 400 -163 7 0 46 -11 85 -24 125 -43 278 -73 537
-107 50 -7 185 -12 300 -12 204 0 265 6 540 48 178 27 523 134 690 215 140 67
190 93 268 139 433 252 778 591 1050 1029 127 205 304 619 333 777 3 17 14 64
24 105 59 234 65 292 65 670 0 386 -2 403 -66 675 -45 188 -113 395 -167 509
-16 34 -32 71 -36 83 -4 12 -25 55 -47 95 -22 40 -47 87 -55 103 -23 50 -155
250 -219 332 -165 212 -299 350 -521 535 -81 68 -129 101 -319 223 -55 36
-242 133 -345 179 -201 91 -526 186 -751 219 -66 9 -83 15 -89 32 -8 19 -32
92 -145 450 -26 83 -66 204 -87 270 -41 123 -68 218 -68 237 0 14 217 4 375
-18 61 -8 160 -21 220 -29 207 -28 626 -149 810 -234 33 -16 71 -32 85 -36 48
-15 387 -192 445 -232 17 -11 82 -55 145 -96 188 -124 401 -299 575 -472 143
-143 241 -260 416 -495 69 -94 152 -227 224 -360 28 -52 56 -104 62 -115 21
-37 101 -210 116 -250 8 -22 29 -74 46 -116 41 -102 117 -342 135 -426 8 -37
29 -133 46 -213 33 -152 55 -368 66 -623 6 -133 1 -243 -22 -547 -8 -110 -24
-203 -79 -450 -53 -235 -198 -629 -312 -845 -119 -226 -298 -503 -424 -655
-185 -223 -402 -442 -571 -573 -30 -23 -65 -52 -78 -65 -32 -30 -327 -229
-405 -272 -33 -19 -78 -44 -100 -57 -107 -61 -440 -212 -535 -243 -529 -170
-802 -215 -1300 -215 -435 0 -739 44 -1120 161 -423 131 -786 316 -1175 599
-55 40 -127 97 -160 126 -158 143 -282 259 -305 285 -14 16 -72 83 -130 149
-139 159 -160 186 -271 350 -105 154 -244 399 -308 542 -23 50 -48 104 -56
120 -8 15 -15 33 -15 38 0 6 -17 53 -38 105 -40 99 -131 401 -151 505 -82 410
-85 443 -84 850 0 362 11 492 59 704 8 36 21 102 29 146 9 44 31 132 51 195
20 63 40 131 45 150 11 47 127 333 178 440 129 270 277 506 465 739 205 254
360 408 626 622 120 97 386 275 480 323 30 16 62 34 70 41 14 11 186 93 345
163 228 101 643 214 920 252 294 39 451 49 442 28z m100 -26 c15 -12 28 -46
47 -122 13 -58 36 -136 49 -175 14 -38 39 -115 57 -170 18 -55 50 -145 72
-200 49 -130 51 -146 15 -159 -39 -14 -74 7 -114 69 -66 102 -61 98 -108 91
-39 -6 -45 -4 -69 25 -15 17 -28 30 -30 28 -1 -2 -8 -19 -16 -37 -30 -76 -106
-152 -152 -152 -10 0 -20 10 -24 25 -15 62 54 325 127 480 15 33 37 96 49 140
22 84 58 175 69 175 3 0 16 -8 28 -18z m3915 -77 c43 -29 103 -107 143 -185
15 -30 47 -84 71 -119 57 -83 63 -139 18 -178 -34 -30 -60 -29 -127 7 -69 36
-108 38 -243 9 -155 -34 -157 -34 -188 -7 -35 30 -45 92 -22 135 8 17 40 52
70 78 67 57 116 130 116 174 0 41 23 96 47 110 25 15 70 6 115 -24z m-7720 14
c24 -13 48 -67 48 -109 0 -32 59 -133 87 -148 8 -5 34 -28 58 -51 66 -64 73
-134 19 -188 -28 -28 -20 -28 -178 6 -131 28 -184 27 -246 -4 -147 -75 -215
22 -116 166 24 36 59 96 79 134 56 113 150 204 210 205 10 0 27 -5 39 -11z
m6982 -351 c8 -13 23 -53 35 -90 22 -74 53 -140 124 -265 26 -45 47 -86 47
-91 0 -15 -68 -82 -83 -82 -19 0 -23 13 -37 115 -12 89 -17 101 -112 250 -71
110 -84 155 -50 174 29 17 61 12 76 -11z m-6276 0 c26 -26 12 -68 -63 -182
-87 -133 -92 -145 -106 -245 -17 -130 -22 -134 -84 -71 l-39 40 27 53 c15 28
48 88 72 132 25 44 57 118 71 165 15 47 33 93 42 103 17 20 62 23 80 5z m7560
-245 c19 -26 15 -90 -8 -113 -58 -58 -150 -19 -150 64 0 31 35 74 63 78 32 5
80 -9 95 -29z m-8790 -9 c58 -66 -9 -162 -95 -133 -38 12 -53 34 -53 78 0 44
10 62 44 77 40 17 75 10 104 -22z m3902 -361 c0 -4 -4 -20 -10 -37 -5 -17 -30
-98 -55 -181 -25 -82 -65 -213 -90 -290 -25 -77 -45 -144 -45 -149 0 -6 -20
-73 -44 -150 -24 -78 -65 -208 -90 -291 -25 -82 -66 -215 -91 -295 -24 -80
-65 -212 -90 -295 -75 -245 -132 -431 -180 -585 -25 -80 -47 -156 -50 -169 -2
-14 -22 -79 -43 -145 -22 -67 -62 -195 -90 -286 -28 -91 -71 -231 -97 -311
-25 -80 -45 -150 -45 -154 0 -5 -20 -72 -45 -149 -24 -78 -65 -208 -90 -291
-25 -82 -66 -215 -90 -295 -25 -80 -66 -212 -90 -295 -51 -168 -105 -344 -112
-362 -5 -12 44 -37 408 -209 l135 -64 219 -25 c230 -26 230 -26 285 -86 15
-17 55 -50 257 -216 100 -83 131 -102 300 -182 103 -49 202 -97 218 -106 30
-17 30 -17 140 35 61 28 128 60 150 70 181 85 211 104 382 237 100 78 190 146
200 152 11 5 71 23 134 39 63 17 158 44 213 61 54 17 105 31 113 31 37 0 219
65 338 120 296 138 286 132 280 154 -7 24 -73 231 -140 441 -24 77 -85 268
-135 425 -50 157 -111 348 -136 425 -24 77 -65 205 -91 285 -25 80 -65 206
-89 280 -53 164 -114 355 -190 595 -31 99 -73 232 -94 295 -21 63 -59 183 -85
265 -26 83 -67 211 -91 285 -48 151 -114 358 -178 560 -58 182 -129 405 -166
520 -17 52 -46 145 -65 205 -18 61 -37 119 -41 129 -7 18 -3 19 57 12 65 -8
342 -73 434 -103 125 -40 360 -136 435 -177 14 -8 61 -33 105 -57 44 -23 91
-51 105 -61 14 -10 73 -51 132 -89 173 -113 404 -326 593 -544 82 -96 238
-324 300 -440 21 -38 46 -86 56 -105 153 -287 267 -687 294 -1030 8 -102 15
-230 15 -285 -1 -140 -26 -435 -45 -525 -57 -268 -127 -488 -221 -694 -63
-136 -194 -363 -264 -456 -14 -19 -48 -64 -75 -100 -190 -253 -498 -534 -750
-685 -44 -27 -91 -56 -105 -65 -44 -29 -221 -117 -330 -163 -235 -100 -464
-160 -795 -209 -110 -16 -547 -16 -660 0 -151 22 -316 52 -395 73 -119 31
-319 99 -388 130 -34 16 -66 29 -71 29 -10 0 -235 115 -286 147 -350 217 -581
416 -794 683 -42 52 -79 97 -82 100 -20 17 -131 189 -200 308 -32 57 -94 179
-110 217 -9 22 -29 67 -44 100 -15 33 -32 74 -36 90 -4 17 -26 84 -48 150 -43
129 -70 241 -104 430 -20 108 -22 153 -22 450 0 353 1 363 61 635 93 419 302
851 579 1198 86 107 338 357 440 437 172 134 382 269 525 336 36 17 97 46 137
65 39 19 77 34 85 34 7 0 24 6 38 13 71 36 432 138 570 160 14 2 28 5 33 6 4
0 7 -2 7 -6z m5106 -108 c21 -32 15 -57 -19 -73 -55 -27 -101 35 -60 80 23 26
59 23 79 -7z m-9284 -2 c21 -18 24 -53 6 -71 -17 -17 -58 -15 -80 5 -22 20
-23 32 -2 61 18 26 50 28 76 5z m3738 -4098 l0 -35 -100 0 -100 0 0 -45 0 -45
90 0 90 0 0 -30 0 -30 -90 0 -90 0 0 -55 0 -55 100 0 100 0 0 -30 0 -30 -135
0 -135 0 0 195 0 195 135 0 135 0 0 -35z m1255 11 c79 -52 85 -252 10 -331
-30 -32 -37 -35 -89 -35 -51 0 -61 4 -87 30 -38 38 -37 74 3 78 21 3 30 -3 43
-27 15 -31 46 -40 71 -23 16 10 34 48 34 71 0 18 -2 19 -27 5 -51 -26 -120 2
-147 61 -22 46 -20 86 7 126 43 65 122 84 182 45z m295 -4 c48 -36 56 -116 15
-148 -12 -9 -11 -15 10 -34 35 -33 35 -106 1 -143 -30 -32 -62 -41 -127 -35
-66 7 -99 38 -106 101 -5 41 -2 49 23 74 28 27 28 30 12 46 -23 22 -23 85 -2
116 36 51 121 62 174 23z m287 3 c44 -29 56 -96 24 -136 -19 -23 -19 -24 5
-52 37 -44 33 -100 -10 -143 -30 -30 -40 -34 -84 -34 -87 0 -124 26 -138 99
-7 32 -6 32 27 29 26 -2 34 -8 39 -28 13 -55 99 -65 122 -14 18 38 -7 77 -52
84 -27 4 -36 10 -38 28 -3 16 2 22 15 22 29 0 63 29 63 54 0 57 -75 63 -99 9
-12 -26 -21 -33 -43 -33 -35 0 -38 27 -6 77 37 61 114 77 175 38z m-899 -177
l2 -188 -40 0 -40 0 0 130 0 130 -45 0 c-41 0 -45 2 -45 24 0 20 7 25 44 35
28 7 49 20 60 36 12 18 25 25 39 23 22 -3 22 -6 25 -190z m-538 132 c0 -36 3
-40 25 -40 20 0 25 -5 25 -25 0 -20 -5 -25 -25 -25 -24 0 -25 -2 -25 -74 0
-87 5 -106 31 -106 14 0 19 -7 19 -25 0 -22 -4 -25 -40 -25 -67 0 -80 22 -80
135 0 88 -1 95 -20 95 -15 0 -20 7 -20 25 0 18 5 25 20 25 17 0 20 7 20 40 0
39 1 40 35 40 34 0 35 -1 35 -40z m-164 -64 c44 -44 45 -66 1 -66 -22 0 -36 7
-45 21 -16 25 -75 24 -80 -3 -2 -12 8 -20 40 -29 74 -20 98 -31 113 -53 22
-30 18 -61 -9 -93 -23 -26 -29 -28 -100 -28 -83 0 -111 16 -118 65 -3 21 1 25
27 28 23 2 32 -2 40 -20 8 -19 18 -23 55 -23 38 0 45 3 45 20 0 15 -11 23 -45
33 -82 23 -115 44 -118 76 -8 71 29 105 117 106 36 0 49 -6 77 -34z m344 -216
l0 -40 -40 0 -40 0 0 40 0 40 40 0 40 0 0 -40z"/>
<path d="M5681 7613 c-6 -38 -13 -89 -16 -114 -2 -26 -22 -150 -45 -277 -22
-126 -40 -236 -40 -243 0 -11 24 -18 87 -26 48 -7 88 -11 89 -10 2 2 53 313
94 570 12 76 20 140 18 143 -7 7 -109 24 -143 24 -33 0 -33 0 -44 -67z"/>
<path d="M4124 7589 c-63 -10 -104 -25 -104 -38 0 -16 28 -135 69 -291 21 -80
48 -185 60 -235 11 -49 26 -107 32 -128 l10 -39 50 7 c27 4 111 24 186 46 76
22 166 44 201 50 34 6 62 13 62 15 0 3 -7 34 -16 70 -13 51 -20 64 -33 60 -72
-22 -243 -65 -273 -69 l-36 -5 -22 91 c-12 51 -41 166 -65 257 -24 91 -45 176
-47 189 -4 29 -9 31 -74 20z"/>
<path d="M6152 7508 c-18 -46 -32 -87 -32 -93 0 -5 -20 -61 -45 -124 -25 -63
-45 -118 -45 -123 0 -5 -20 -60 -45 -124 -25 -63 -45 -121 -45 -130 0 -8 12
-19 28 -25 34 -14 134 -40 136 -37 9 15 86 219 86 227 0 21 21 21 69 0 64 -27
77 -55 96 -206 8 -65 15 -121 15 -124 0 -8 142 -59 164 -59 19 0 19 -10 2 132
-19 146 -30 190 -61 226 l-25 29 41 6 c49 6 113 47 138 88 24 39 33 113 21
164 -14 64 -87 119 -220 165 -36 12 -104 38 -152 56 -48 19 -89 34 -91 34 -2
0 -18 -37 -35 -82z m247 -137 c68 -35 89 -69 71 -117 -18 -46 -50 -74 -85 -74
-36 0 -122 27 -131 41 -3 5 4 36 15 69 12 33 21 66 21 73 0 17 20 37 37 37 8
0 40 -13 72 -29z"/>
<path d="M3234 7221 c-34 -21 -64 -44 -68 -49 -3 -6 4 -23 17 -39 13 -15 57
-77 97 -138 41 -60 93 -137 117 -169 24 -32 41 -61 38 -64 -3 -3 -61 22 -128
57 -67 35 -179 92 -249 127 l-128 64 -80 -52 c-44 -29 -80 -57 -80 -63 0 -5
31 -55 70 -110 38 -55 106 -154 151 -220 45 -66 105 -151 132 -190 28 -38 52
-72 54 -74 5 -8 133 82 133 94 0 7 -15 34 -32 59 -115 164 -239 349 -236 351
4 4 47 -18 300 -149 l207 -107 78 57 c43 32 79 58 81 60 6 4 -393 587 -405
591 -5 2 -36 -15 -69 -36z"/>
<path d="M7003 7163 c-17 -27 -50 -82 -74 -123 -23 -41 -53 -89 -66 -106 -12
-17 -23 -34 -23 -37 0 -7 -75 -133 -125 -212 -62 -97 -64 -88 18 -136 39 -24
75 -45 79 -47 4 -2 14 12 23 30 10 18 32 56 49 83 50 76 216 355 216 361 0 3
21 37 46 75 26 38 45 71 43 72 -40 29 -138 87 -146 87 -5 0 -23 -21 -40 -47z"/>
<path d="M7363 6826 c-69 -22 -126 -61 -185 -124 -96 -104 -124 -225 -84 -362
18 -59 28 -73 114 -159 75 -74 110 -100 166 -126 119 -55 100 -62 229 82 64
70 113 131 110 136 -2 4 -50 48 -105 96 l-99 89 -40 -43 -40 -43 42 -40 43
-39 -50 -57 c-27 -30 -52 -56 -55 -56 -22 0 -109 74 -134 115 -25 40 -30 59
-30 109 1 76 29 133 96 197 64 61 140 87 205 69 88 -25 169 -101 224 -210 l33
-65 43 50 c24 27 44 55 44 61 0 25 -100 162 -151 207 -80 70 -186 119 -268
123 -39 2 -83 -2 -108 -10z"/>
<path d="M2441 6596 c-24 -28 -98 -111 -165 -185 -67 -73 -121 -137 -121 -141
0 -7 117 -110 438 -389 61 -53 112 -90 117 -85 5 5 80 92 168 193 l160 184
-46 42 -46 43 -25 -20 c-14 -10 -63 -63 -109 -116 -46 -53 -87 -98 -92 -100
-10 -4 -125 96 -125 108 0 5 38 53 85 106 47 54 88 103 93 110 8 13 -68 93
-89 94 -5 0 -53 -49 -105 -109 -55 -64 -99 -106 -105 -103 -21 13 -94 82 -94
90 0 4 45 59 100 122 55 63 99 117 98 120 -2 3 -23 24 -48 46 l-45 41 -44 -51z"/>
<path d="M1945 5892 c-50 -31 -102 -97 -149 -189 -24 -49 -60 -117 -80 -151
-20 -35 -36 -70 -36 -77 0 -7 30 -27 68 -44 37 -17 121 -61 187 -96 66 -36
147 -78 180 -94 33 -16 87 -45 119 -65 33 -20 67 -36 76 -36 11 0 46 60 109
183 107 212 120 266 83 350 -31 70 -84 101 -175 101 -59 1 -78 -3 -103 -21
l-31 -23 -6 46 c-6 53 -34 88 -92 115 -51 24 -112 24 -150 1z m94 -177 c29
-14 41 -33 41 -63 0 -21 -54 -137 -68 -146 -5 -3 -36 10 -67 29 -32 19 -62 36
-67 37 -15 5 47 124 74 142 28 20 51 20 87 1z m262 -106 c78 -26 87 -77 34
-187 l-35 -73 -52 26 c-80 39 -112 57 -120 68 -6 10 42 106 71 141 14 16 44
33 62 35 3 1 21 -4 40 -10z"/>
<path d="M7817 2278 c-77 -78 -111 -147 -112 -228 0 -82 29 -139 98 -191 85
-64 167 -75 252 -35 63 29 109 81 150 170 55 119 57 112 -52 185 -78 52 -97
61 -104 49 -5 -9 -29 -42 -54 -76 -25 -33 -45 -62 -45 -66 0 -3 14 -13 31 -22
31 -16 32 -15 54 12 21 26 25 27 46 16 55 -30 63 -40 52 -65 -19 -40 -66 -89
-101 -104 -53 -22 -139 5 -192 62 -22 23 -25 36 -25 98 0 85 19 119 98 172
l48 33 -29 21 c-17 11 -38 21 -47 21 -9 0 -40 -24 -68 -52z"/>
<path d="M2349 2172 c-210 -157 -259 -196 -259 -201 0 -3 15 -24 33 -45 l33
-39 78 59 c148 113 206 154 206 146 0 -8 -42 -82 -93 -166 -41 -67 -44 -82
-21 -114 20 -29 27 -28 172 12 67 18 122 30 122 26 0 -10 -50 -50 -171 -138
l-107 -77 31 -42 c17 -24 33 -43 37 -43 4 0 71 48 150 108 79 59 165 123 190
142 l48 34 -41 58 c-50 70 -54 71 -216 27 -62 -16 -115 -29 -116 -27 -2 2 30
59 70 127 l73 125 -44 58 c-25 32 -48 58 -52 58 -4 -1 -59 -40 -123 -88z"/>
<path d="M7542 1904 c-18 -21 -32 -41 -32 -45 0 -4 53 -57 117 -118 64 -61
114 -113 112 -115 -3 -3 -47 8 -99 24 -52 15 -133 39 -180 53 l-85 25 -48 -46
-47 -47 170 -170 170 -169 40 39 40 39 -117 118 c-136 137 -139 134 77 66 180
-58 165 -57 216 -7 24 24 44 47 44 51 0 9 -326 331 -340 336 -4 1 -21 -14 -38
-34z"/>
<path d="M2790 1691 c-109 -38 -202 -175 -186 -274 19 -116 143 -226 257 -227
64 0 139 40 193 104 55 63 66 91 66 162 0 67 -22 113 -82 171 -75 73 -159 95
-248 64z m187 -123 c58 -62 55 -110 -13 -191 -55 -64 -77 -76 -136 -77 -118
-1 -154 118 -66 224 44 54 85 76 139 76 38 0 50 -5 76 -32z"/>
<path d="M7147 1527 c-42 -36 -46 -56 -17 -82 11 -10 75 -87 142 -172 66 -84
124 -153 128 -153 3 0 25 14 48 31 l42 31 -22 31 c-27 39 -204 257 -250 309
l-33 37 -38 -32z"/>
<path d="M3173 1261 c-60 -95 -95 -163 -99 -189 -16 -104 105 -219 234 -221
79 -2 107 22 219 193 46 70 87 134 90 141 4 12 -67 59 -90 60 -5 0 -52 -65
-105 -145 l-97 -145 -42 -3 c-35 -3 -48 2 -68 22 -44 44 -35 75 65 235 50 79
90 145 90 147 0 5 -86 54 -96 54 -5 0 -50 -67 -101 -149z"/>
<path d="M6873 1320 c-46 -21 -203 -119 -203 -127 0 -3 15 -26 33 -52 19 -25
46 -68 62 -96 23 -40 150 -240 160 -253 6 -6 95 54 95 64 0 6 -20 39 -45 75
-25 35 -45 69 -45 75 0 18 69 47 94 40 13 -3 50 -24 83 -46 33 -22 68 -40 77
-40 22 0 96 42 96 55 0 6 -12 17 -28 26 -15 9 -54 33 -86 53 -33 20 -72 36
-88 36 -33 0 -32 -1 -13 36 8 16 15 37 15 47 0 27 -37 94 -62 111 -30 21 -93
19 -145 -4z m60 -89 c31 -12 53 -62 38 -89 -9 -18 -69 -62 -84 -62 -7 0 -67
95 -67 106 0 10 67 53 82 54 4 0 18 -4 31 -9z"/>
<path d="M3691 1091 c-11 -27 -21 -52 -21 -55 0 -3 -17 -43 -39 -88 -21 -46
-42 -94 -46 -108 -4 -14 -18 -46 -31 -72 -31 -62 -30 -71 9 -84 17 -6 39 -14
48 -18 12 -5 27 18 70 115 30 67 59 135 66 153 16 44 20 26 34 -166 6 -92 15
-171 18 -177 10 -15 115 -61 122 -53 3 4 28 57 54 117 26 61 67 154 91 207 24
54 44 101 44 106 0 4 -22 17 -49 29 l-48 20 -26 -56 c-14 -31 -40 -90 -57
-131 -17 -41 -37 -86 -44 -99 -13 -23 -13 -23 -19 20 -4 24 -12 112 -18 196
l-12 152 -55 20 c-29 12 -57 21 -62 21 -4 0 -17 -22 -29 -49z"/>
<path d="M6479 1107 c-41 -20 -67 -32 -186 -82 l-42 -18 16 -36 c8 -20 24 -57
34 -82 10 -25 34 -80 53 -122 20 -42 36 -81 36 -86 0 -6 12 -35 27 -65 l26
-55 36 18 c20 10 47 22 61 26 14 4 62 25 108 46 45 22 87 39 92 39 13 0 13 10
-1 49 -6 17 -17 31 -24 31 -16 0 -157 -59 -169 -71 -6 -5 -15 -9 -22 -9 -14 0
-57 101 -47 110 5 4 42 22 83 40 41 19 79 37 84 42 6 5 3 21 -7 43 l-16 34
-39 -13 c-21 -8 -62 -26 -90 -40 -28 -14 -53 -26 -56 -26 -6 0 -40 90 -35 93
15 12 164 77 175 77 18 0 18 2 -3 45 -19 40 -31 42 -94 12z"/>
<path d="M4134 936 c-12 -48 -3 -59 65 -72 36 -8 68 -17 73 -22 4 -4 -5 -55
-21 -112 -24 -92 -65 -258 -66 -269 0 -7 95 -34 101 -28 10 10 94 305 94 330
0 42 11 48 60 33 76 -22 120 -26 120 -12 0 8 3 28 6 45 5 26 3 31 -12 31 -11
0 -89 20 -174 44 -85 24 -174 46 -197 50 -39 6 -43 4 -49 -18z"/>
<path d="M6095 953 c-101 -21 -285 -78 -282 -87 2 -6 12 -45 22 -86 15 -62 72
-275 91 -342 3 -10 15 -18 28 -18 22 0 293 74 301 82 8 7 -16 78 -26 78 -5 0
-52 -12 -105 -27 -77 -22 -97 -24 -104 -14 -13 22 -21 94 -12 103 5 5 45 18
88 29 44 11 82 24 87 28 4 4 2 22 -4 40 -11 31 -13 32 -53 27 -22 -3 -63 -12
-90 -21 -27 -8 -53 -15 -57 -15 -10 0 -39 89 -31 94 16 9 160 46 180 46 12 0
22 6 22 14 0 20 -21 76 -28 75 -4 -1 -16 -3 -27 -6z"/>
<path d="M5658 852 c-56 -4 -53 15 -30 -185 10 -81 16 -150 13 -152 -2 -3 -51
65 -109 150 -104 153 -106 155 -143 155 -20 0 -49 -3 -65 -6 l-29 -6 7 -111
c6 -102 20 -232 34 -329 6 -37 7 -38 47 -38 73 0 73 -1 54 162 -10 78 -17 154
-17 167 0 18 31 -22 108 -138 l107 -162 65 6 c36 4 66 8 67 9 2 2 -2 38 -7 82
-6 43 -15 147 -21 229 -6 91 -15 154 -22 160 -7 6 -33 9 -59 7z"/>
<path d="M4687 831 c-7 -9 -35 -59 -62 -111 -27 -52 -77 -147 -110 -210 -67
-126 -67 -122 11 -132 40 -6 42 -5 62 36 l20 43 98 -14 c54 -7 102 -17 106
-21 4 -4 11 -25 16 -47 l8 -40 56 -3 55 -3 -8 38 c-13 62 -101 437 -105 451
-2 6 -11 12 -21 13 -10 0 -39 4 -65 8 -38 6 -50 5 -61 -8z m73 -135 c0 -13 7
-56 16 -95 9 -40 14 -74 11 -78 -3 -3 -33 -2 -66 2 -43 5 -61 11 -61 21 0 22
79 174 90 174 6 0 10 -11 10 -24z"/>
<path d="M5060 571 l0 -239 38 -3 c20 -2 47 -3 60 -1 l22 3 0 240 0 239 -60 0
-60 0 0 -239z"/>
<path d="M6011 6160 c-18 -52 -49 -142 -68 -198 l-36 -104 18 -61 c10 -34 57
-181 105 -327 48 -146 129 -393 180 -550 51 -157 130 -397 175 -535 45 -137
126 -385 180 -550 53 -165 117 -358 140 -430 24 -71 105 -319 181 -550 75
-231 164 -505 199 -608 l62 -188 156 190 c132 161 157 196 157 223 0 18 18
149 41 291 l42 257 31 20 c18 10 45 31 61 45 17 14 65 51 107 81 42 30 79 62
82 72 17 60 88 403 88 428 0 23 -16 52 -59 109 -32 43 -103 140 -158 216 -174
240 -362 498 -490 674 -68 94 -183 251 -254 350 -72 99 -180 248 -240 330 -61
83 -159 218 -218 300 -59 83 -117 162 -128 177 -11 15 -71 98 -134 185 -63 86
-130 178 -150 203 l-36 46 -34 -96z m105 -110 c29 -61 107 -173 167 -240 112
-123 199 -246 200 -282 l2 -33 -76 -6 c-123 -10 -149 -35 -149 -143 0 -38 5
-109 11 -158 7 -49 9 -92 5 -95 -10 -10 -33 24 -78 117 -22 47 -54 104 -69
127 -29 42 -59 135 -59 184 0 15 -18 87 -41 161 -47 154 -52 224 -21 303 10
28 22 70 26 94 4 24 10 49 13 54 8 12 47 -34 69 -83z"/>
<path d="M3838 5722 c-15 -20 -60 -83 -100 -140 -40 -57 -102 -142 -137 -190
-36 -48 -107 -147 -159 -221 -51 -74 -99 -139 -105 -146 -7 -6 -34 -44 -62
-83 -27 -40 -80 -114 -117 -165 -37 -50 -100 -138 -140 -195 -40 -57 -107
-149 -149 -205 -41 -56 -110 -151 -153 -212 -42 -60 -107 -151 -144 -202 -37
-51 -95 -132 -130 -180 -34 -48 -74 -102 -88 -120 l-25 -31 95 -119 c100 -125
109 -142 209 -408 43 -113 107 -310 130 -400 6 -22 23 -82 38 -132 l28 -92
163 -182 162 -182 30 94 c16 52 49 159 73 239 25 80 64 208 88 285 24 77 64
208 89 290 25 83 66 215 91 295 25 80 65 213 91 295 53 175 117 383 178 580
24 77 65 210 91 295 26 85 61 198 78 250 16 52 42 139 57 193 26 91 27 101 14
144 -8 25 -14 56 -14 67 0 12 -20 100 -44 196 -24 96 -57 230 -72 298 -16 67
-31 122 -34 122 -3 -1 -17 -17 -32 -38z m42 -284 c7 -29 24 -78 37 -108 72
-161 92 -280 60 -352 -21 -50 -47 -49 -93 2 -56 61 -147 104 -286 134 -24 6
-28 11 -28 41 0 68 78 223 181 360 29 39 64 92 78 120 l26 49 6 -96 c4 -53 12
-120 19 -150z"/>
<path d="M5381 2498 c-23 -65 18 -119 74 -98 25 9 35 29 35 66 0 46 -17 64
-59 64 -35 0 -40 -3 -50 -32z"/>
<path d="M5692 2524 c-30 -21 -29 -59 3 -80 23 -15 27 -15 50 0 31 21 35 70 6
86 -26 13 -33 13 -59 -6z"/>
<path d="M5700 2383 c-39 -14 -54 -78 -24 -107 24 -24 80 -20 98 6 21 29 20
51 -1 76 -20 23 -50 33 -73 25z"/>
</g>
</svg>
